<svg id="Vrstva_1" data-name="Vrstva 1" xmlns="http://www.w3.org/2000/svg" viewBox="0 0 502.7 359"><defs><style>.cls-1{fill:#000;}</style></defs><title>Ephi dark - svg edited</title><path class="cls-1" d="M276.6,348.2v48.9c0,5.6.9,9.5,2.6,11.6s4.6,3.1,8.8,3.1h71.3v31.4H290.2a31.8,31.8,0,0,0-6.2.4,8.54,8.54,0,0,0-4.9,2.9c-1.6,1.7-2.4,4.4-2.4,8v72.6a8.94,8.94,0,0,0,8.9,9H367v33.7H265a20.44,20.44,0,0,1-20.5-20.4h0V329.9a20.42,20.42,0,0,1,20.4-20.4H364v30H285.6a8.84,8.84,0,0,0-9,8.7Z" transform="translate(-244.5 -309.4)"/><path class="cls-1" d="M378.8,668.4V491.1q0-38.7,24.9-61.8,22.95-21.15,58.1-21.2,33.6,0,57.2,24.3t23.6,58.7q0,33.6-23.4,57t-57.4,23.4q-21.6,0-36.6-6.6a55.27,55.27,0,0,1-10.6-6.6c-2.4-.7-4.2.2-5.3,2.9a23.62,23.62,0,0,0-1.6,9.1v98Zm83-234.3c-15.1,0-28.2,5.4-39.3,16.3s-16.6,23.9-16.6,39.3,5.5,28.5,16.5,39.5,24.1,16.5,39.5,16.5,28.4-5.5,39.3-16.6,16.3-24.6,16.3-40.4a51.84,51.84,0,0,0-16.3-38.5c-10.9-10.8-24-16.1-39.4-16.1Z" transform="translate(-244.5 -309.4)"/><path class="cls-1" d="M579.3,475.8v94H554.4V309.4h26v98.7a29,29,0,0,0,.9,8.3c.6,1.8,1.9,2.1,3.8.9,3.7-2,9.9-4.1,18.6-6.4a100.64,100.64,0,0,1,25.6-3.5A72.21,72.21,0,0,1,646,409a51.67,51.67,0,0,1,14.1,6q15,9.45,22.5,21.9c5,8.3,7.5,18.2,7.5,29.6V569.7H662.3V479c0-12.7-2.9-23.3-8.8-31.8-6.8-9.7-16-14.6-27.4-14.6-11.7,0-22.4,4.1-32.2,12.4S579.3,463.6,579.3,475.8Z" transform="translate(-244.5 -309.4)"/><path class="cls-1" d="M747.2,603a17.82,17.82,0,0,1-5.5,13.2,18.6,18.6,0,1,1-13.5-31.8,19.13,19.13,0,0,1,13.5,5.1C745.4,592.9,747.2,597.4,747.2,603Zm-5.9-197.5V569.7h-27V405.5Z" transform="translate(-244.5 -309.4)"/></svg>